<?xml version="1.0" standalone="no"?>
<!DOCTYPE svg PUBLIC "-//W3C//DTD SVG 20010904//EN"
 "http://www.w3.org/TR/2001/REC-SVG-20010904/DTD/svg10.dtd">
<svg version="1.0" xmlns="http://www.w3.org/2000/svg"
 width="1024.000000pt" height="1024.000000pt" viewBox="0 0 1024.000000 1024.000000"
 preserveAspectRatio="xMidYMid meet">

<g transform="translate(0.000000,1024.000000) scale(0.100000,-0.100000)"
fill="#000000" stroke="none">
<path d="M4095 9485 l0 -184 45 -3 45 -3 10 65 10 65 138 3 137 3 0 39 0 39
-142 3 -143 3 -3 38 -3 37 150 0 c141 0 150 1 155 20 19 67 40 60 -191 60
l-208 0 0 -185z"/>
<path d="M4584 9650 c-26 -10 -30 -15 -39 -59 l-7 -34 46 5 46 6 0 -137 0
-136 43 3 42 4 0 141 c-1 78 -2 159 -3 180 l-2 37 -52 -1 c-29 0 -63 -4 -74
-9z"/>
<path d="M1723 9109 c-123 -21 -267 -102 -363 -205 -63 -68 -249 -275 -330
-369 -30 -35 -96 -108 -146 -162 l-92 -98 82 3 c44 1 149 7 231 12 l150 9 124
133 c198 211 303 313 346 334 38 18 69 19 695 22 l655 3 38 37 c21 20 93 94
159 165 l120 127 -808 -1 c-445 -1 -832 -5 -861 -10z"/>
<path d="M3320 8969 c-261 -267 -514 -518 -555 -548 -22 -16 -69 -56 -104 -88
l-63 -58 278 0 279 0 50 55 c27 30 213 220 414 423 l366 367 -260 -1 -260 -1
-145 -149z"/>
<path d="M9238 9111 l-67 -6 -84 -100 c-47 -55 -96 -110 -110 -123 l-25 -23
-38 47 c-22 26 -55 66 -75 89 -20 24 -46 59 -58 79 l-23 36 -84 0 c-65 0 -84
-3 -84 -14 0 -16 65 -105 191 -265 l86 -109 5 -120 c2 -67 7 -124 10 -127 3
-4 43 -3 87 1 l81 7 0 117 0 117 63 75 c34 41 87 104 118 139 65 74 139 171
139 182 0 7 -23 7 -132 -2z"/>
<path d="M4138 9103 c-26 -4 -26 -5 -32 -116 -4 -62 -7 -203 -9 -315 l-2 -202
78 0 77 0 2 88 c1 48 2 99 1 113 l-1 26 157 6 c86 4 186 7 224 7 l67 0 0 33
c0 17 3 49 6 70 l7 37 -227 0 -226 0 0 50 0 50 233 2 c127 0 237 1 244 1 13
-1 18 11 28 72 4 22 13 49 20 61 l13 21 -316 0 c-175 0 -329 -1 -344 -4z"/>
<path d="M5640 9103 l-25 -4 3 -314 3 -315 73 0 74 0 7 195 c4 107 4 207 1
222 -7 25 -2 23 50 -27 31 -30 91 -96 133 -145 42 -50 108 -128 146 -174 l70
-83 59 6 c32 3 83 6 112 6 l54 0 0 320 0 320 -80 0 -80 0 -2 -167 c-2 -93 -3
-196 -3 -231 0 -34 -3 -62 -6 -62 -3 0 -50 55 -105 122 -54 67 -131 159 -169
203 -39 45 -80 94 -92 108 -20 26 -25 27 -109 26 -49 -1 -100 -4 -114 -6z"/>
<path d="M6444 9031 l1 -78 95 -7 c52 -3 116 -6 141 -6 l46 0 6 -107 c4 -58 7
-164 7 -235 l0 -128 70 0 70 0 1 48 c1 26 4 130 8 232 l6 185 80 8 c164 16
165 16 165 40 1 12 9 46 19 75 l18 52 -367 0 -368 0 2 -79z"/>
<path d="M7310 9084 c-6 -14 -10 -27 -10 -30 0 -6 -209 -449 -244 -519 -14
-27 -26 -53 -26 -57 0 -5 39 -8 86 -8 l85 0 26 60 26 60 204 0 205 0 26 -60
27 -60 97 0 c54 0 98 3 98 6 0 8 -137 261 -219 404 -36 63 -78 141 -95 173
l-29 57 -124 0 c-123 0 -124 0 -133 -26z m198 -201 c27 -43 59 -97 71 -120
l21 -43 -135 0 c-74 0 -135 3 -135 8 -1 12 114 232 122 232 3 0 28 -35 56 -77z"/>
<path d="M8036 9095 c-55 -19 -109 -66 -123 -106 -21 -60 -16 -139 13 -197 40
-80 47 -82 303 -82 l221 0 6 -25 c12 -50 3 -52 -276 -60 l-260 -7 0 -74 0 -73
283 3 c321 4 334 7 384 78 25 37 28 50 28 117 0 98 -22 146 -79 172 -36 16
-68 19 -253 19 l-213 0 0 39 0 38 68 6 c37 4 149 7 250 7 l182 0 0 80 0 80
-247 0 c-185 -1 -258 -4 -287 -15z"/>
<path d="M4964 9048 c-18 -44 -134 -293 -246 -525 l-25 -53 94 0 93 0 26 55
c15 31 31 58 35 61 5 3 99 2 208 -2 l199 -7 25 -55 25 -55 96 -1 c53 0 96 0
96 1 0 12 -158 342 -224 468 l-84 160 -149 3 -148 2 -21 -52z m219 -155 c18
-38 45 -89 61 -115 15 -27 26 -49 24 -49 -1 -1 -63 -4 -135 -8 -153 -7 -148
-12 -88 89 17 30 44 76 59 103 15 26 31 47 37 47 5 0 24 -30 42 -67z"/>
<path d="M1905 8741 c-190 -8 -200 -14 -405 -240 -47 -52 -105 -120 -129 -150
l-43 -56 58 -7 c33 -3 122 -7 200 -9 l140 -2 90 92 91 91 424 0 c423 1 424 1
450 23 24 20 239 254 239 259 0 6 -982 4 -1115 -1z"/>
<path d="M3445 8422 c-16 -11 -36 -26 -44 -36 -12 -15 -12 -19 2 -33 15 -15
16 -14 11 8 -5 20 -3 19 15 -8 19 -30 25 -33 69 -33 38 0 53 5 70 23 29 30 28
41 -5 72 -33 30 -76 32 -118 7z m71 -37 c7 -40 2 -50 -21 -42 -15 6 -21 57 -8
70 14 14 22 6 29 -28z"/>
<path d="M7305 8334 c-33 -7 -65 -13 -71 -13 -7 -1 -11 -70 -13 -203 -1 -124
-6 -207 -13 -215 -11 -14 -125 -17 -216 -6 -69 8 -80 28 -94 181 -5 64 -13
149 -17 187 l-6 70 -35 3 c-65 4 -65 6 -65 -230 l0 -213 35 -60 c51 -85 62
-89 260 -89 188 -1 198 2 268 78 31 33 42 54 43 78 2 95 -8 439 -13 443 -2 1
-30 -4 -63 -11z"/>
<path d="M4114 8071 c4 -145 11 -274 16 -287 14 -36 66 -44 293 -44 l207 0 0
73 0 72 -156 -3 c-86 -2 -167 -1 -180 2 l-24 6 0 179 c0 98 -3 198 -6 222 l-6
44 -75 0 -76 0 7 -264z"/>
<path d="M4874 8333 l-202 -3 -6 -63 c-3 -34 -7 -145 -7 -247 -2 -154 1 -192
15 -226 16 -39 21 -42 64 -48 80 -10 487 -8 485 3 -1 5 4 31 12 58 8 26 15 54
15 60 0 10 -53 13 -217 15 l-218 3 -3 48 -3 47 189 0 189 0 7 46 c3 26 6 58 6
71 l0 25 -192 -3 -193 -4 0 35 0 35 218 3 c217 2 217 2 218 25 0 12 4 46 8 75
l7 52 -95 -2 c-53 -2 -187 -4 -297 -5z"/>
<path d="M5479 8254 c-82 -178 -161 -338 -179 -363 -9 -14 -25 -46 -33 -71 -8
-25 -18 -53 -22 -63 -7 -16 0 -17 73 -16 l79 1 12 39 c22 72 42 79 222 79
l159 0 35 -54 c35 -56 68 -76 148 -90 l37 -7 0 44 c0 59 -13 87 -121 268 -50
84 -106 185 -124 224 -37 81 -35 80 -162 91 l-83 7 -41 -89z m171 -106 c12
-24 33 -56 46 -71 32 -38 56 -85 46 -90 -4 -2 -54 -1 -112 2 -104 6 -105 6
-103 31 1 29 83 170 98 170 2 0 13 -19 25 -42z"/>
<path d="M7484 8333 l-41 -4 -7 -91 c-4 -51 -4 -157 0 -237 7 -161 24 -224 66
-240 13 -4 146 -11 296 -14 l272 -5 0 68 0 67 -82 6 c-46 4 -150 7 -231 7
-109 0 -149 3 -151 13 -3 6 -7 27 -10 45 l-5 32 223 0 224 0 12 50 c7 28 10
56 7 64 -4 11 -55 15 -236 21 l-231 7 0 34 0 34 148 1 c81 1 194 3 252 5 l105
4 6 62 c3 35 4 66 2 71 -4 7 -539 7 -619 0z"/>
<path d="M6130 8319 c-32 -13 -97 -76 -118 -114 -23 -44 -19 -179 9 -280 12
-44 27 -99 32 -122 9 -32 17 -43 37 -47 14 -3 140 -9 280 -13 288 -7 306 -3
337 63 16 32 16 40 0 122 -9 48 -18 103 -20 122 l-2 35 -192 9 c-105 5 -199 6
-207 3 -11 -5 -16 -20 -16 -50 0 -70 8 -74 155 -81 133 -7 148 -12 143 -51 -4
-27 -65 -34 -246 -27 -171 6 -162 -3 -162 161 0 89 3 111 17 122 12 11 77 15
272 20 141 3 257 7 259 8 1 0 2 27 2 60 0 52 -2 59 -22 65 -38 10 -531 5 -558
-5z"/>
<path d="M9068 8013 c-35 -9 -17 -23 30 -24 26 0 41 -3 34 -6 -6 -2 -10 -9 -6
-14 3 -5 -15 -9 -40 -9 -54 0 -61 -16 -12 -25 65 -13 81 -5 84 43 l3 42 -38
-1 c-21 -1 -46 -3 -55 -6z"/>
<path d="M8380 8000 c0 -5 25 -10 55 -10 30 0 55 5 55 10 0 6 -25 10 -55 10
-30 0 -55 -4 -55 -10z"/>
<path d="M8632 7963 c3 -44 5 -48 28 -48 23 0 25 4 28 48 3 47 3 47 -28 47
-31 0 -31 0 -28 -47z"/>
<path d="M8835 8000 c-18 -8 -18 -9 5 -10 23 -1 23 -2 5 -10 -11 -5 -32 -9
-47 -9 -21 -1 -28 -6 -28 -21 0 -18 7 -20 54 -20 57 0 66 7 66 56 0 26 -18 30
-55 14z"/>
<path d="M8280 7990 c0 -5 5 -10 10 -10 6 0 10 5 10 10 0 6 -4 10 -10 10 -5 0
-10 -4 -10 -10z"/>
<path d="M8408 7963 c-41 -5 -45 -10 -24 -38 24 -33 105 -8 106 33 0 12 -9 12
-82 5z"/>
<path d="M1207 7897 c-6 -61 0 -71 35 -58 20 7 26 18 31 53 3 23 5 43 4 44 -1
1 -16 4 -33 7 l-32 6 -5 -52z m51 -4 c-5 -25 -28 -28 -28 -4 0 12 6 21 16 21
9 0 14 -7 12 -17z"/>
<path d="M1675 7941 c-3 -2 -5 -26 -5 -53 0 -35 4 -48 12 -46 7 3 13 13 13 24
0 10 7 19 15 19 8 0 15 -9 15 -19 0 -11 6 -21 13 -24 8 -2 12 11 12 46 0 50 0
50 -35 54 -20 2 -38 2 -40 -1z m45 -27 c0 -17 -22 -14 -28 4 -2 7 3 12 12 12
9 0 16 -7 16 -16z"/>
<path d="M1920 7946 c-3 -2 -3 -30 -2 -61 l4 -56 31 3 c29 3 32 6 35 42 3 37
2 38 -22 34 -14 -3 -26 -1 -26 3 0 5 14 9 31 9 43 0 32 24 -12 28 -19 2 -37 1
-39 -2z m50 -76 c0 -11 -7 -20 -15 -20 -8 0 -15 9 -15 20 0 11 7 20 15 20 8 0
15 -9 15 -20z"/>
<path d="M8713 7938 c2 -7 10 -13 17 -13 7 0 15 6 18 13 2 7 -5 12 -18 12 -13
0 -20 -5 -17 -12z"/>
<path d="M1008 7890 c4 -51 7 -56 30 -41 11 7 11 9 -2 14 -9 4 -16 18 -16 32
0 20 5 25 26 25 14 0 23 4 19 10 -3 6 -18 10 -33 10 -26 0 -27 -2 -24 -50z"/>
<path d="M1439 7936 c-2 -2 -2 -27 0 -56 l3 -51 37 3 36 3 2 53 1 52 -37 0
c-21 0 -40 -2 -42 -4z m49 -59 c4 -29 -12 -37 -22 -11 -10 26 -7 46 7 42 6 -3
13 -17 15 -31z"/>
<path d="M2164 7924 c3 -9 6 -34 6 -55 0 -39 1 -40 33 -37 30 3 32 5 33 44 0
22 4 46 8 52 5 9 -6 12 -39 12 -39 0 -46 -3 -41 -16z m56 -61 c0 -7 -7 -13
-15 -13 -10 0 -15 10 -15 33 1 30 1 31 15 13 8 -11 15 -26 15 -33z"/>
<path d="M2380 7885 c0 -52 1 -55 25 -53 21 2 25 8 25 33 0 22 -3 26 -10 15
-10 -17 -15 -14 -24 18 -6 18 -3 22 12 22 11 0 23 -6 25 -12 3 -7 6 -3 6 10 1
18 -4 22 -29 22 -30 0 -30 -1 -30 -55z"/>
<path d="M2560 7885 c0 -56 0 -56 28 -53 22 2 28 8 30 36 3 25 0 32 -14 32
-13 0 -15 -3 -7 -11 12 -12 7 -39 -8 -39 -5 0 -9 16 -9 36 0 29 3 35 20 32 10
-2 20 2 22 7 2 6 -12 11 -29 13 l-33 3 0 -56z"/>
<path d="M2963 7933 c-32 -4 -33 -5 -33 -54 l0 -49 40 0 c38 0 40 1 40 33 0
17 3 42 6 55 4 15 2 22 -7 20 -8 0 -29 -3 -46 -5z m30 -30 c-7 -2 -19 -2 -25
0 -7 3 -2 5 12 5 14 0 19 -2 13 -5z m-6 -29 c8 -21 -13 -42 -28 -27 -13 13 -5
43 11 43 6 0 13 -7 17 -16z"/>
<path d="M3188 7933 c-26 -4 -28 -8 -28 -52 0 -43 3 -49 23 -53 30 -6 47 1 47
18 0 16 -16 19 -25 4 -11 -18 -35 -10 -35 11 0 18 5 21 30 17 24 -4 30 -1 32
14 0 10 1 23 2 30 1 14 -10 16 -46 11z"/>
<path d="M3670 7930 c0 -6 7 -10 15 -10 8 0 15 2 15 4 0 2 -7 6 -15 10 -8 3
-15 1 -15 -4z"/>
<path d="M2750 7920 c0 -5 7 -10 15 -10 8 0 15 -8 16 -17 0 -15 2 -15 9 2 13
31 12 35 -15 35 -14 0 -25 -4 -25 -10z"/>
<path d="M3430 7921 c0 -5 7 -12 16 -15 17 -7 14 -31 -4 -31 -7 0 -12 -3 -12
-7 0 -5 0 -15 0 -24 0 -10 7 -14 23 -12 18 2 23 11 27 51 6 46 5 47 -22 47
-15 0 -28 -4 -28 -9z"/>
<path d="M3670 7868 c0 -16 5 -28 10 -28 13 0 13 20 0 40 -8 12 -10 9 -10 -12z"/>
<path d="M2772 7844 c-7 -8 -8 -14 -3 -14 10 0 25 19 20 25 -2 1 -10 -3 -17
-11z"/>
<path d="M1553 6898 c-2 -862 9 -1602 25 -1638 l11 -25 1 25 2 25 7 -25 c10
-33 19 503 27 1528 l6 822 -25 0 c-14 0 -31 2 -39 5 -11 5 -14 -112 -15 -717z"/>
<path d="M1690 6990 c0 -593 11 -1397 18 -1337 3 28 16 36 26 15 5 -10 7 -10
12 0 3 6 10 12 15 12 6 0 7 -6 4 -12 -4 -7 3 -2 14 11 l21 23 2 -33 c5 -78 14
1707 10 1818 l-5 121 -59 4 -58 3 0 -625z"/>
<path d="M1877 7614 c-1 -1 1 -353 4 -781 8 -885 21 -1535 29 -1398 4 70 7 80
10 45 3 -27 10 29 18 145 9 125 16 497 19 1086 l6 897 -42 4 c-23 2 -43 3 -44
2z"/>
<path d="M4471 7185 c1 -236 4 -459 8 -495 l7 -65 8 55 c5 30 12 62 17 70 6
10 7 5 3 -14 -5 -19 -3 -27 4 -22 6 3 13 0 15 -6 3 -7 6 192 6 443 l1 457 -35
4 -35 4 1 -431z"/>
<path d="M4951 7310 c0 -168 4 -314 9 -325 5 -11 9 -15 9 -8 1 13 59 35 71 28
5 -3 11 4 15 15 4 11 11 18 16 14 7 -4 9 97 8 284 l-1 290 -64 4 -64 3 1 -305z"/>
<path d="M5595 7610 c-1 -3 0 -196 3 -430 4 -234 8 -413 10 -399 3 23 9 28 48
34 24 3 48 4 54 0 5 -3 13 7 17 22 7 25 9 21 14 -27 3 -30 6 121 7 335 0 215
-3 408 -6 430 l-7 40 -68 0 c-38 0 -70 -2 -72 -5z"/>
<path d="M5822 7189 c1 -239 5 -391 8 -339 l6 95 3 -85 c1 -47 6 -103 10 -125
l9 -40 1 40 c0 23 7 47 14 53 9 10 13 111 15 417 4 400 3 405 -16 405 -11 0
-27 3 -36 6 -14 6 -16 -36 -14 -427z"/>
<path d="M5930 7383 c0 -131 3 -329 7 -440 5 -170 8 -199 20 -188 26 27 33
123 33 491 l0 374 -30 0 -30 0 0 -237z"/>
<path d="M6058 7613 c-4 -11 -4 -423 1 -693 2 -124 6 -214 8 -200 6 30 24 44
35 27 5 -8 8 -8 8 -1 0 6 11 12 25 12 14 0 34 7 45 17 18 16 19 16 23 -22 7
-67 7 527 0 700 l-6 167 -68 0 c-37 0 -69 -3 -71 -7z"/>
<path d="M6266 7233 c2 -213 8 -435 11 -493 l7 -105 7 64 c3 34 12 67 19 71 9
5 9 9 1 13 -8 4 -7 5 1 3 7 -1 15 -13 19 -27 4 -13 7 173 8 414 l1 437 -24 0
c-13 0 -31 3 -40 6 -13 5 -14 -37 -10 -383z"/>
<path d="M6407 7613 c-7 -6 5 -958 12 -998 6 -38 9 -42 10 -19 1 31 1 31 54
29 28 -1 57 -4 62 -6 22 -7 54 22 58 54 2 17 5 3 6 -33 1 -45 4 -60 11 -50 11
17 14 752 4 917 l-7 108 -104 0 c-58 0 -105 -1 -106 -2z"/>
<path d="M6840 7051 c2 -545 3 -572 20 -581 12 -7 21 -7 25 0 4 6 13 5 26 -3
17 -10 22 -9 31 7 7 13 12 15 18 6 5 -9 21 1117 16 1127 -1 0 -32 4 -69 8
l-68 7 1 -571z"/>
<path d="M7055 7495 c-8 -139 3 -1228 13 -1260 5 -17 7 -16 11 9 4 20 13 30
29 32 12 2 22 0 22 -4 0 -13 33 -11 49 2 12 9 12 7 1 -14 -7 -14 -9 -22 -5
-18 4 4 16 3 26 -3 13 -6 19 -6 19 1 0 5 5 10 10 10 6 0 11 -15 12 -32 0 -18
4 -4 8 32 10 87 12 563 3 1006 l-6 359 -92 3 -93 3 -7 -126z"/>
<path d="M7327 7610 c-1 -3 0 -369 3 -815 3 -445 6 -797 8 -782 2 23 6 27 21
22 15 -5 21 0 26 25 7 30 8 31 26 15 18 -17 18 -7 19 386 1 222 3 571 5 776
l4 371 -56 4 c-30 1 -56 1 -56 -2z"/>
<path d="M7805 7612 l-50 -3 2 -187 c1 -103 2 -503 3 -889 0 -387 3 -703 6
-703 3 0 12 6 19 14 8 7 25 12 38 11 19 -2 27 3 31 18 5 21 9 1739 4 1741 -2
1 -26 0 -53 -2z m35 -1732 c0 -5 -5 -10 -11 -10 -5 0 -7 5 -4 10 3 6 8 10 11
10 2 0 4 -4 4 -10z"/>
<path d="M8536 6703 c6 -1191 11 -1443 31 -1436 8 3 19 0 25 -8 7 -10 8 -8 5
9 -4 15 2 31 17 47 22 24 23 33 29 296 4 150 7 661 7 1136 l0 863 -44 0 c-24
0 -51 3 -59 6 -13 5 -15 -103 -11 -913z"/>
<path d="M8720 7610 c-6 -124 10 -2464 17 -2550 5 -63 7 -70 13 -42 4 18 15
39 24 45 15 11 17 118 23 1282 l6 1270 -41 0 c-23 0 -42 -2 -42 -5z"/>
<path d="M2024 6728 c4 -486 8 -892 11 -903 2 -11 4 -24 4 -28 1 -5 8 -1 17 7
8 9 20 16 25 16 5 0 9 12 10 28 0 24 1 25 9 7 5 -11 9 -18 10 -15 6 16 17
1437 12 1588 l-5 182 -50 0 -50 0 7 -882z"/>
<path d="M2176 6852 c1 -703 2 -760 19 -797 9 -22 23 -52 30 -68 14 -33 25
466 25 1181 l0 442 -37 0 -38 0 1 -758z"/>
<path d="M2321 6883 c0 -401 3 -779 6 -842 5 -99 8 -112 19 -96 8 11 14 13 14
7 0 -17 51 -4 68 16 9 12 12 193 12 829 l0 813 -60 0 -60 0 1 -727z"/>
<path d="M2500 7087 c0 -664 10 -1105 23 -1081 6 10 21 29 34 42 13 12 24 31
24 40 1 9 5 4 8 -13 8 -32 18 598 20 1188 l1 347 -55 0 -55 0 0 -523z"/>
<path d="M2671 6818 c0 -436 2 -788 4 -783 2 6 6 35 10 66 l6 56 39 -7 c22 -4
41 -4 42 0 2 5 12 10 23 12 11 1 23 8 27 13 4 6 8 1 9 -10 1 -11 5 -5 10 15 5
19 8 349 8 733 l0 697 -89 0 -90 0 1 -792z"/>
<path d="M2913 7113 c4 -273 8 -602 8 -732 1 -130 3 -227 5 -216 14 68 28 95
49 95 46 0 48 27 52 713 l3 637 -62 0 -61 0 6 -497z"/>
<path d="M3101 7048 c1 -477 10 -786 18 -673 3 33 19 79 20 56 1 -9 15 2 35
23 24 28 35 34 40 25 3 -8 3 -3 0 11 -4 14 -3 22 1 18 11 -11 42 24 61 67 15
35 18 97 22 538 l4 497 -101 0 -101 0 1 -562z"/>
<path d="M3378 7068 c1 -335 6 -546 12 -552 7 -7 10 0 10 18 0 21 4 27 15 22
8 -3 15 -1 15 4 0 6 11 10 25 10 14 0 25 5 25 10 0 6 4 10 9 10 6 0 12 -17 14
-37 2 -21 4 208 5 510 l2 547 -67 0 -68 0 3 -542z"/>
<path d="M3570 7358 c0 -329 13 -764 21 -713 l6 40 2 -35 c1 -19 6 -44 10 -55
l8 -20 6 20 c22 75 27 178 27 577 l0 438 -40 0 -40 0 0 -252z"/>
<path d="M3714 7579 c3 -17 6 -250 6 -517 0 -267 2 -483 4 -481 2 2 6 31 9 64
4 33 6 61 7 63 0 1 14 2 30 2 17 0 30 4 30 10 0 5 12 13 28 16 26 7 73 35 99
60 9 9 14 117 18 413 l6 401 -122 0 -121 0 6 -31z"/>
<path d="M4014 7594 c3 -9 6 -210 7 -447 1 -316 4 -423 11 -397 6 19 13 30 15
23 2 -7 11 -9 19 -6 9 3 14 -1 14 -13 0 -9 3 -14 7 -10 4 4 10 200 13 436 l5
430 -49 0 c-40 0 -47 -3 -42 -16z"/>
<path d="M4161 7168 c0 -324 3 -437 11 -421 8 17 17 21 34 17 17 -4 24 -2 24
9 0 8 7 17 15 21 8 3 15 13 15 22 0 29 25 8 31 -27 4 -19 7 158 8 394 l1 427
-70 0 -70 0 1 -442z"/>
<path d="M4361 7238 c0 -205 4 -391 8 -413 l9 -40 1 52 c1 57 20 84 22 31 l1
-33 9 35 c5 19 8 194 8 388 l0 352 -30 0 -29 0 1 -372z"/>
<path d="M4606 7431 c-6 -162 4 -588 12 -533 2 16 16 28 42 38 22 9 40 24 44
36 4 18 7 19 20 8 12 -9 16 -9 16 -1 0 7 5 9 10 6 11 -7 14 385 4 533 l-7 92
-67 0 -67 0 -7 -179z"/>
<path d="M4825 7308 c4 -166 11 -313 16 -327 4 -15 8 -20 8 -13 1 6 7 12 15
12 22 0 26 49 26 346 l0 284 -36 0 -36 0 7 -302z"/>
<path d="M5141 7363 c1 -137 4 -259 8 -273 6 -26 8 -27 143 -29 32 -1 37 -4
41 -28 2 -16 5 108 6 275 l1 302 -100 0 -100 0 1 -247z"/>
<path d="M5413 7378 c4 -128 7 -282 8 -343 1 -60 4 -96 8 -80 5 25 12 31 38
33 17 2 37 10 44 18 14 16 27 505 15 568 l-7 36 -56 0 -56 0 6 -232z"/>
<path d="M6700 7218 c0 -216 3 -464 7 -551 6 -152 7 -157 25 -141 17 16 18 15
25 -17 17 -84 22 39 22 554 l1 547 -40 0 -40 0 0 -392z m33 -673 c-3 -9 -8
-14 -10 -11 -3 3 -2 9 2 15 9 16 15 13 8 -4z"/>
<path d="M7510 6741 c3 -478 8 -873 13 -877 4 -4 7 1 7 11 0 14 3 15 15 5 12
-10 15 -10 15 1 0 9 3 10 8 4 4 -5 27 -10 52 -10 37 0 46 4 57 25 10 20 13
206 13 868 l0 842 -92 0 -93 0 5 -869z"/>
<path d="M7920 6733 c0 -842 4 -999 21 -972 9 15 71 19 81 4 4 -5 8 0 8 13 0
12 5 22 11 22 8 0 10 261 8 905 l-3 905 -63 0 -63 0 0 -877z"/>
<path d="M8113 7203 c4 -223 7 -647 8 -942 0 -360 4 -526 10 -506 14 42 33
1377 24 1640 -7 208 -8 215 -28 215 -20 0 -20 -1 -14 -407z"/>
<path d="M8225 6648 c3 -530 8 -982 11 -1004 7 -59 35 -65 62 -13 21 39 21 48
22 937 0 493 1 930 0 970 l0 72 -51 0 -50 0 6 -962z"/>
<path d="M8392 6408 c4 -706 11 -1217 16 -1238 l10 -35 1 36 c1 20 10 57 21
82 20 44 20 73 27 1201 l6 1156 -44 0 -44 0 7 -1202z"/>
<path d="M1321 7261 c-6 -11 -11 -34 -11 -51 0 -36 39 -62 68 -44 23 15 32 58
18 86 -15 31 -61 37 -75 9z m49 -35 c0 -14 -5 -28 -11 -32 -17 -10 -32 12 -24
35 9 29 35 27 35 -3z"/>
<path d="M9006 7267 c-17 -12 -17 -14 -2 -20 18 -7 21 -38 5 -54 -16 -16 -2
-33 27 -33 22 0 24 3 24 54 0 40 -4 55 -16 60 -20 8 -17 8 -38 -7z"/>
<path d="M4713 6325 c-2 -7 -3 -50 -1 -96 l3 -84 150 -2 c83 -2 160 -5 172 -8
27 -6 36 -49 26 -119 l-8 -49 -65 -13 c-36 -8 -81 -20 -100 -29 -30 -13 -131
-15 -698 -17 -616 -3 -663 -2 -668 14 -12 38 -100 34 -109 -5 -10 -48 -23
-649 -15 -678 15 -51 37 -78 153 -190 l110 -106 -7 -94 c-4 -51 -9 -95 -11
-97 -1 -2 -31 -4 -65 -5 l-62 -2 -14 53 c-8 29 -28 87 -45 128 -37 88 -107
167 -180 202 -67 32 -258 44 -660 40 -364 -3 -352 -1 -436 -66 -72 -54 -114
-199 -128 -437 -3 -55 -8 -122 -11 -150 l-5 -50 -288 -2 c-318 -2 -394 -12
-482 -60 -127 -69 -185 -210 -228 -558 -11 -88 -25 -241 -32 -341 -14 -220 -7
-832 11 -992 13 -112 13 -113 -9 -129 -20 -13 -22 -23 -20 -82 l3 -66 -40 0
-39 0 -6 50 c-4 28 -12 89 -18 137 -16 120 -17 123 -48 103 -28 -19 -47 -10
-20 9 13 10 17 27 17 70 l0 56 -62 0 -63 -1 -47 -55 c-32 -36 -48 -65 -48 -82
0 -15 5 -148 10 -296 8 -203 8 -272 -1 -282 -6 -8 -41 -34 -78 -58 -36 -25
-81 -61 -100 -80 -33 -35 -35 -39 -39 -126 -3 -49 -3 -91 -1 -91 2 -1 337 -5
744 -10 848 -9 884 -11 920 -47 l25 -25 0 23 c0 22 1 23 82 16 46 -3 139 -11
207 -16 68 -5 125 -10 127 -12 1 -2 6 -214 10 -471 6 -420 9 -468 23 -465 16
3 22 169 30 813 l1 121 178 -13 c256 -19 472 -40 480 -48 4 -4 8 -136 10 -293
2 -158 8 -291 13 -297 31 -32 38 89 23 444 l-7 153 89 -6 c49 -4 119 -9 157
-12 l67 -6 0 -569 0 -568 -32 -9 c-40 -10 -47 -33 -19 -61 26 -26 33 -26 60
-3 20 17 21 28 31 487 5 259 10 526 10 594 l0 123 118 -7 c123 -7 263 -22 269
-29 2 -2 6 -190 8 -417 l3 -414 24 0 23 0 0 415 0 415 75 -4 c41 -2 104 -6
140 -10 l65 -6 5 -292 c3 -160 8 -294 12 -298 24 -24 28 21 28 299 l0 292 98
-3 c53 -2 152 -6 220 -9 l122 -6 2 -102 c1 -55 2 -222 2 -371 l1 -270 27 0 28
0 2 373 1 374 116 -5 116 -6 3 -641 2 -641 23 3 22 3 3 642 2 643 121 0 122 0
-7 -38 c-7 -46 -9 -722 -2 -729 3 -3 16 -3 29 1 22 5 24 11 30 97 4 51 7 223
7 384 l0 292 218 9 c119 5 219 8 222 6 3 -2 6 -135 7 -295 3 -291 3 -292 24
-295 l22 -4 -6 300 -7 299 88 7 c48 4 115 9 150 13 l62 6 0 -391 c0 -261 3
-393 10 -397 6 -4 17 -2 24 4 10 9 12 86 8 396 l-5 385 24 0 c13 0 87 7 164
15 77 8 156 15 176 15 l36 0 8 -388 c9 -476 19 -754 25 -637 1 44 4 85 5 90 2
6 3 218 4 473 l1 462 35 0 35 0 0 -82 c0 -46 0 -201 0 -345 -1 -255 6 -400 19
-387 10 9 10 40 10 436 0 353 1 377 18 382 18 6 148 25 169 26 8 0 14 -86 19
-292 7 -277 12 -318 37 -318 6 0 9 113 6 304 l-3 303 150 12 c83 7 227 19 320
27 94 7 180 14 191 14 21 0 21 -4 17 -88 -2 -48 0 -250 4 -450 7 -334 9 -362
24 -350 15 12 17 62 23 448 4 238 8 435 9 436 3 3 203 21 318 29 l86 6 -3 -72
c-2 -45 1 -76 9 -84 19 -21 23 -11 25 67 2 50 7 76 17 84 21 16 277 25 935 34
373 5 601 12 648 20 l72 12 -6 37 c-19 115 -43 152 -127 200 -86 49 -87 52
-87 395 l0 293 -42 54 c-23 30 -46 57 -51 60 -16 11 -111 19 -120 10 -5 -5
-10 -39 -10 -75 -1 -45 -4 -63 -11 -56 -14 14 -46 13 -47 -2 -1 -7 -4 -82 -8
-167 l-6 -154 -29 24 c-23 20 -30 37 -37 84 -5 35 -15 66 -26 77 -16 16 -18
27 -11 76 15 115 21 801 9 1007 -33 554 -78 755 -196 869 -103 101 -192 118
-592 119 l-282 0 -5 26 c-3 14 -13 103 -22 196 -18 198 -34 276 -69 344 -69
136 -176 157 -725 142 -385 -11 -402 -14 -499 -110 -66 -64 -97 -123 -126
-236 -19 -75 -22 -80 -49 -83 -16 -2 -44 -1 -62 2 l-32 7 -7 88 c-8 106 1 131
72 188 106 85 162 146 180 192 15 39 18 76 17 256 -2 284 -16 444 -40 462 -30
22 -73 17 -79 -9 l-6 -23 -672 3 -672 2 -95 26 c-52 14 -100 27 -106 29 -12 4
-29 153 -19 164 4 3 86 8 183 11 l177 5 0 95 0 95 -449 1 c-325 0 -449 -3
-453 -11z m857 -64 c0 -22 -4 -43 -10 -46 -5 -3 -10 3 -10 14 0 12 -1 21 -2
21 -2 1 -167 5 -368 10 -201 4 -379 12 -395 17 l-30 8 40 6 c22 3 205 7 408 8
l367 1 0 -39z m-52 -58 c-10 -2 -28 -2 -40 0 -13 2 -5 4 17 4 22 1 32 -1 23
-4z m-303 -242 c-5 -13 -7 -14 -15 -1 -11 18 -13 143 -2 154 9 10 25 -131 17
-153z m-98 67 c-2 -13 -4 -5 -4 17 -1 22 1 32 4 23 2 -10 2 -28 0 -40z m276
-133 c61 -22 149 -102 178 -163 18 -36 23 -63 22 -118 -1 -79 -16 -121 -64
-175 l-30 -34 31 49 c22 36 30 61 29 90 -1 23 -4 31 -6 19 -4 -23 -82 -117
-90 -109 -3 3 9 22 26 43 74 92 67 194 -20 288 -77 83 -202 111 -436 98 -137
-8 -156 -1 -61 23 76 20 355 12 421 -11z m-602 -35 c-22 -19 -40 -20 -378 -20
-252 0 -368 4 -401 13 -43 11 -31 12 153 17 110 3 301 6 425 7 225 2 225 2
201 -17z m1984 11 c3 -5 -5 -18 -18 -28 -21 -16 -38 -17 -203 -12 -98 4 -363
7 -587 8 -395 1 -458 5 -442 32 8 12 1242 12 1250 0z m-70 -81 c-3 -5 -21 -9
-38 -9 l-32 2 35 7 c19 4 36 8 38 9 2 0 0 -3 -3 -9z m-1664 -151 c-17 -68 -34
-144 -39 -169 -9 -39 -10 -41 -11 -13 -1 17 15 93 34 170 19 76 35 140 35 142
0 2 2 2 5 -1 3 -3 -8 -61 -24 -129z m275 -34 c13 -49 24 -101 24 -115 -1 -14
-16 35 -35 109 -19 73 -35 136 -34 140 1 13 21 -48 45 -134z m1601 -110 c-5
-153 -9 -202 -23 -230 -9 -20 -70 -89 -134 -153 -65 -65 -125 -132 -134 -150
-14 -27 -15 -48 -10 -122 6 -80 5 -90 -9 -84 -34 13 -34 162 -1 227 19 35 152
168 205 203 19 14 46 39 60 57 23 31 24 38 27 227 1 107 5 201 7 208 14 40 17
-10 12 -183z m-2110 163 c-3 -8 -6 -5 -6 6 -1 11 2 17 5 13 3 -3 4 -12 1 -19z
m-107 -23 c0 -24 -3 -25 -57 -24 -75 1 -165 21 -171 37 -3 9 24 12 112 12
l116 0 0 -25z m1205 4 c8 -23 -1 -67 -17 -86 -7 -9 -42 -12 -122 -11 l-111 2
108 3 c111 4 117 6 101 47 -5 13 -24 16 -110 16 -92 0 -104 2 -114 19 -5 11
-10 22 -10 25 0 3 60 6 134 6 127 0 135 -1 141 -21z m-1096 -56 c1 -11 22 -49
49 -83 77 -100 77 -101 59 -94 -22 8 -93 102 -112 147 -8 20 -15 49 -14 64 0
25 1 26 9 8 5 -11 9 -30 9 -42z m-421 -20 c3 -10 -86 -13 -422 -13 -256 0
-427 4 -431 9 -9 15 61 18 469 17 294 -1 380 -4 384 -13z m2397 0 c16 -10 -65
-12 -397 -13 -229 0 -419 4 -422 9 -3 4 -2 11 2 15 13 13 795 2 817 -11z
m-332 -150 c-7 -2 -21 -2 -30 0 -10 3 -4 5 12 5 17 0 24 -2 18 -5z m-1743 -13
c-8 -5 -40 -10 -71 -10 -30 0 -104 -9 -164 -20 -96 -18 -149 -20 -449 -19
-636 2 -522 23 206 38 197 4 361 11 365 14 3 4 34 7 67 7 43 0 57 -3 46 -10z
m2076 -28 c23 -13 -187 -22 -504 -22 -264 0 -448 13 -467 32 -13 13 947 3 971
-10z m-1161 -17 c311 -30 625 -105 738 -177 67 -43 87 -72 87 -127 0 -56 -14
-85 -24 -48 -16 67 -155 138 -342 176 -276 55 -389 60 -546 25 -69 -16 -165
-67 -208 -111 -14 -14 -18 -22 -10 -17 8 4 -8 -18 -37 -49 -29 -32 -57 -74
-63 -95 -5 -20 -10 -114 -10 -208 l0 -171 218 -6 c119 -4 266 -7 325 -7 l109
0 -44 -42 c-24 -24 -33 -34 -19 -22 65 54 106 74 149 74 56 0 128 -18 143 -36
14 -18 29 -18 29 -1 0 13 27 36 114 94 38 26 58 33 95 32 25 0 55 -4 66 -8 15
-6 12 -9 -20 -14 -46 -7 -125 -54 -185 -110 -30 -28 -47 -37 -62 -34 -29 8
-187 -30 -226 -53 -41 -25 -61 -58 -84 -138 -40 -144 -45 -276 -13 -328 13
-20 12 -22 -26 -27 -22 -3 -55 -1 -75 4 -33 10 -34 11 -28 47 4 20 11 47 15
60 5 13 9 31 8 40 0 17 -57 -123 -58 -144 -1 -17 137 -42 299 -54 80 -6 170
-15 200 -20 93 -15 220 -22 220 -12 0 9 -32 27 -65 36 -11 3 -90 8 -175 11
-85 2 -180 8 -210 12 l-55 7 35 9 c52 14 103 13 224 -7 59 -9 110 -15 112 -13
5 5 -46 40 -161 109 -191 115 -245 153 -245 171 0 16 9 14 68 -19 37 -21 90
-54 117 -74 28 -20 79 -52 115 -72 36 -19 88 -49 116 -67 46 -29 64 -33 185
-46 74 -8 226 -28 339 -45 234 -34 515 -66 675 -75 107 -6 146 -19 131 -43 -6
-11 -15 -10 -196 14 -63 8 -194 21 -290 29 -96 9 -267 31 -380 49 -266 45
-325 52 -316 38 3 -6 21 -15 39 -21 29 -9 235 -40 377 -56 30 -4 98 -15 150
-25 52 -10 140 -21 195 -24 55 -4 171 -16 258 -28 123 -16 157 -24 157 -36 0
-13 -16 -14 -105 -8 -57 4 -130 11 -160 17 -31 5 -108 16 -173 24 -64 7 -166
20 -227 29 -60 8 -198 25 -305 36 -107 11 -262 27 -345 35 -82 9 -226 20 -320
26 -191 11 -241 18 -338 47 -37 11 -65 16 -61 10 9 -14 132 -69 174 -78 l35
-7 -35 -9 -35 -10 -3 -215 c-3 -197 14 -561 38 -819 23 -242 28 -392 27 -687
-1 -201 -6 -313 -12 -313 -6 0 -12 70 -16 179 -4 145 -9 184 -22 205 -25 38
-69 34 -169 -14 -100 -48 -235 -79 -342 -80 -44 0 -77 2 -75 4 2 3 45 10 94
16 107 14 217 47 280 85 55 32 53 44 -3 22 -22 -9 -87 -21 -144 -28 -97 -11
-109 -11 -151 7 -46 18 -63 47 -34 57 6 2 -31 9 -85 17 -81 10 -102 17 -132
42 -71 58 -35 120 92 157 139 41 260 36 372 -15 53 -23 63 -33 84 -78 23 -49
25 -50 31 -24 11 42 3 60 -43 95 -70 53 -166 77 -302 76 -63 0 -135 -5 -160
-11 -28 -7 -49 -7 -55 -1 -5 6 -5 9 3 9 26 0 11 48 -23 79 -30 26 -35 37 -35
75 0 35 4 45 19 49 17 4 20 -1 23 -32 3 -35 5 -37 68 -59 57 -20 81 -22 200
-20 120 3 140 6 185 28 l50 25 3 56 3 57 -53 5 c-29 4 -132 9 -228 13 -103 4
-188 11 -205 19 -29 12 -28 12 35 19 36 4 167 6 292 4 151 -2 224 0 217 7 -6
6 -121 11 -290 13 -257 3 -280 5 -273 20 4 9 9 31 11 47 10 67 20 75 94 75 76
0 99 6 99 26 0 8 7 14 15 14 18 0 20 -20 3 -21 -7 0 -4 -4 7 -9 11 -5 87 -9
168 -9 82 -1 179 -6 217 -12 95 -14 115 -9 71 18 -59 38 -185 53 -417 53 -115
-1 -224 3 -243 7 l-34 9 -1 87 c-1 80 1 87 19 88 11 0 30 2 43 3 12 2 22 -1
22 -6 0 -8 317 -1 331 8 4 2 12 -3 19 -11 7 -8 20 -15 30 -15 21 0 44 25 36
38 -3 5 -95 10 -203 10 -203 1 -300 8 -308 22 -10 16 60 30 150 30 l92 0 18
46 c10 26 20 67 23 90 l5 44 -124 0 c-162 0 -169 2 -169 50 0 56 8 72 30 60
16 -8 195 -5 225 4 6 2 61 -1 124 -5 82 -6 118 -5 128 3 26 21 -9 28 -147 27
-155 -1 -328 10 -335 21 -3 5 2 10 10 13 22 9 55 82 55 124 1 34 7 43 57 83
31 25 64 58 74 73 l17 29 6 -49 c4 -26 7 -92 8 -145 2 -54 6 -98 9 -98 16 0
23 158 23 550 1 228 -3 570 -8 759 l-9 343 199 -5 c159 -5 184 -4 124 4 -45 7
-205 8 -405 5 -279 -5 -369 -10 -580 -35 -137 -17 -272 -32 -300 -35 -37 -5
-19 3 66 28 310 91 889 125 1354 81z m-1600 -109 c-67 -32 -125 -68 -147 -91
-75 -76 -76 -192 -4 -273 18 -20 38 -47 44 -58 10 -20 8 -24 -21 -38 -18 -8
-51 -18 -74 -22 l-40 -6 -5 95 c-7 131 -24 162 -159 289 -75 72 -109 111 -109
127 l0 22 290 -2 c160 -1 293 1 297 4 3 4 13 7 22 7 9 -1 -33 -25 -94 -54z
m2802 31 c4 -5 -47 -61 -114 -126 -151 -145 -165 -171 -162 -304 l2 -92 -39 3
c-22 2 -63 14 -93 28 l-54 24 19 23 c10 12 35 40 56 62 44 48 58 81 58 140 0
106 -48 155 -230 231 l-55 24 302 -3 c166 -1 305 -6 310 -10z m1068 -147 c158
-16 236 -65 265 -169 28 -98 71 -483 56 -498 -12 -12 -18 6 -27 79 -8 68 -57
242 -58 208 0 -8 6 -33 13 -55 8 -22 17 -58 20 -80 8 -47 -48 103 -65 175 -19
84 -51 160 -67 160 -13 0 -14 -19 -9 -145 3 -80 4 -145 2 -145 -2 0 -8 33 -15
73 -12 77 -49 239 -57 247 -2 2 -8 -1 -12 -8 -6 -10 -15 -10 -34 -3 -15 6 -87
15 -159 21 -73 6 -146 14 -163 19 -16 5 -77 12 -133 15 -57 4 -112 11 -122 16
-26 14 -163 14 -189 1 -15 -9 -21 -22 -22 -49 -1 -34 -2 -34 -10 13 -5 31 -4
51 1 53 6 2 10 14 10 27 0 33 24 37 290 45 362 10 378 10 485 0z m-4774 -9
c113 -10 160 -31 227 -99 48 -50 91 -131 92 -172 1 -14 7 -42 14 -62 19 -52 6
-48 -23 7 -13 25 -27 45 -31 45 -4 0 -26 27 -49 60 -23 33 -44 60 -46 60 -2 0
0 -14 5 -31 6 -22 6 -29 -3 -26 -6 2 -15 17 -19 34 -4 17 -14 43 -22 58 -15
28 -15 27 -22 -34 -6 -57 -18 -74 -38 -54 -4 4 -25 8 -46 8 -34 1 -47 9 -92
53 -30 30 -46 52 -38 53 8 0 -5 7 -30 15 -28 8 -153 20 -325 30 -302 17 -325
19 -325 35 0 5 10 14 23 19 28 11 621 12 748 1z m1519 -17 c0 -18 -64 -95 -83
-98 -57 -11 -420 -45 -428 -40 -5 3 -13 14 -19 24 -14 26 17 41 140 69 125 29
390 59 390 45z m1285 -14 c91 -11 225 -41 270 -62 16 -7 25 -19 25 -34 0 -31
-10 -35 -66 -25 -27 5 -123 15 -214 22 l-165 12 -37 40 c-21 22 -38 44 -38 49
0 11 116 10 225 -2z m-296 -46 c13 -38 13 -47 -7 -108 -12 -37 -22 -79 -23
-94 0 -20 -16 4 -60 92 -33 65 -58 124 -55 131 6 16 37 23 91 21 38 -1 41 -4
54 -42z m60 -15 c26 -35 26 -34 -11 -43 -26 -6 -28 -4 -28 23 0 16 -3 37 -6
45 -10 26 20 9 45 -25z m-1994 -35 c19 -32 26 -60 27 -102 3 -103 -1 -132 -17
-132 -12 0 -13 16 -8 98 6 102 -2 133 -46 187 -15 18 -15 19 1 6 9 -7 29 -33
43 -57z m1774 7 c72 -92 86 -132 88 -256 l2 -110 -19 65 c-12 43 -19 57 -20
40 -2 -14 -6 3 -11 36 -8 64 -54 185 -89 233 -18 26 -18 41 1 41 5 0 26 -22
48 -49z m513 -49 c100 -5 172 -12 179 -19 15 -15 -2 -45 -64 -111 -38 -40 -52
-63 -58 -95 l-6 -42 -2 52 c-1 42 -5 54 -22 63 -11 7 -27 26 -34 43 -14 31
-14 31 -15 -36 0 -92 -22 -87 -32 7 -9 88 -18 96 -18 15 0 -60 -1 -62 -16 -41
-8 12 -23 22 -32 22 -9 0 -59 11 -111 23 -103 25 -117 38 -97 89 13 35 48 48
111 42 28 -3 125 -8 217 -12z m-1823 -107 c0 -5 -22 13 -49 42 -28 28 -50 57
-50 64 0 15 99 -91 99 -106z m511 102 c56 -28 20 -68 -89 -97 -36 -10 -81 -23
-99 -29 -31 -9 -33 -9 -39 20 -10 51 -21 41 -28 -26 -9 -82 -25 -75 -26 13 0
47 -3 60 -8 42 -10 -33 -51 -99 -51 -82 0 8 -11 11 -30 10 -16 -1 -30 -6 -30
-11 0 -16 -29 14 -36 36 -4 12 -22 41 -41 63 -33 41 -33 42 -11 48 13 4 88 10
168 13 80 2 147 7 149 9 10 10 148 3 171 -9z m1994 -114 c5 -61 4 -73 -9 -73
-12 0 -15 14 -15 68 0 38 3 72 7 75 9 10 10 9 17 -70z m-3377 31 c30 -6 51
-39 62 -97 10 -56 -1 -69 -25 -29 l-17 29 -136 2 c-175 2 -322 11 -341 22 -8
5 85 9 216 9 166 0 233 -3 242 -12 9 -9 12 -8 12 4 0 35 -26 39 -277 48 -237
8 -309 15 -317 29 -5 7 547 3 581 -5z m4334 -11 c12 -32 6 -140 -9 -155 -5 -5
-56 -11 -113 -14 -78 -2 -94 -1 -64 6 22 5 58 9 80 10 59 1 66 9 68 79 l2 61
-245 -5 c-276 -7 -296 -9 -322 -32 -10 -9 -21 -14 -23 -11 -9 9 16 56 34 65
14 7 158 13 494 21 87 2 88 2 98 -25z m-69 -55 c-21 -22 -33 -23 -267 -32
-135 -5 -248 -6 -252 -2 -4 3 0 13 9 22 14 14 174 25 468 32 l64 2 -22 -22z
m-1132 -63 c30 -9 136 -20 235 -26 204 -11 303 -23 319 -39 14 -14 -500 -12
-632 3 l-104 12 23 28 c12 16 31 33 43 37 22 10 26 9 116 -15z m-2555 -35
c-34 -9 -368 -30 -465 -29 -108 1 -41 18 110 27 178 12 395 13 355 2z m3342
-140 c-12 -43 -14 -45 -50 -45 -20 0 -37 3 -37 8 0 4 16 7 35 7 24 0 35 5 35
14 0 20 19 70 25 65 2 -3 -1 -25 -8 -49z m-164 11 c4 -4 5 -15 1 -24 -5 -15
-30 -17 -238 -16 -297 1 -401 9 -401 29 0 10 14 17 40 22 52 9 588 -1 598 -11z
m-3185 3 c28 -4 52 -10 52 -14 0 -14 -66 -20 -332 -26 l-268 -7 0 26 0 27 248
0 c136 0 271 -3 300 -6z m-625 -10 c3 -3 3 -12 0 -20 -7 -20 -93 -19 -93 0 0
20 77 36 93 20z m3927 2 c0 -3 -4 -8 -10 -11 -5 -3 -10 -1 -10 4 0 6 5 11 10
11 6 0 10 -2 10 -4z m-4114 -17 c18 -29 -19 -31 -363 -24 -191 4 -343 10 -337
12 63 22 687 33 700 12z m4962 -13 c39 -17 92 -66 92 -87 0 -18 -38 -8 -81 21
l-44 30 -250 -4 c-174 -2 -206 -1 -105 3 l145 7 -155 3 c-85 2 -195 6 -245 10
-77 5 -90 9 -93 25 -4 17 9 18 345 14 306 -4 353 -6 391 -22z m-2890 -2 c14
-10 16 -33 16 -168 l0 -157 -46 -46 c-35 -35 -54 -46 -79 -47 -19 -1 -39 -5
-46 -9 -8 -5 -13 7 -18 35 -3 24 -12 59 -18 78 l-11 35 -11 -64 c-9 -59 -12
-65 -39 -72 -34 -9 -46 -4 -46 20 0 33 -109 119 -118 92 -2 -7 -24 21 -47 61
-57 95 -148 204 -191 230 -19 11 -34 22 -34 24 0 2 151 3 335 2 247 -1 340 -5
353 -14z m1103 -45 c-13 -11 -27 -17 -30 -13 -7 7 28 34 43 34 6 -1 0 -10 -13
-21z m688 -6 c88 -4 119 -9 111 -17 -12 -12 -649 -22 -678 -11 -30 11 1 20 91
26 137 9 338 10 476 2z m-2969 -21 c20 -9 -39 -11 -282 -9 -238 1 -310 5 -320
15 -18 18 564 13 602 -6z m3476 -12 c63 -32 101 -102 111 -202 5 -60 3 -72
-25 -131 -34 -73 -50 -83 -118 -72 -38 5 -44 9 -39 25 6 18 4 18 -25 4 -54
-28 -211 -53 -395 -64 -99 -6 -225 -13 -280 -16 -76 -5 -97 -4 -89 5 7 7 72
16 165 21 338 21 465 39 550 76 65 30 88 66 96 154 4 47 0 64 -26 115 -30 59
-29 74 7 75 6 0 12 5 12 10 0 6 -25 10 -55 10 -34 0 -55 4 -55 11 0 20 112 5
166 -21z m-1218 -15 c19 -40 15 -70 -10 -83 -38 -19 -109 -31 -182 -32 -56 0
-78 -5 -114 -26 l-45 -26 7 28 c22 86 83 128 219 149 114 18 112 18 125 -10z
m-4077 -25 c165 -13 313 -34 366 -53 69 -24 129 -81 172 -166 63 -124 90 -241
56 -241 -51 0 -67 -160 -95 -970 -10 -282 -16 -340 -38 -348 -9 -3 -12 99 -12
460 0 299 -4 504 -12 578 -7 63 -13 197 -13 298 0 100 -3 182 -6 182 -5 0 -43
-113 -54 -163 -6 -29 -25 -257 -45 -542 -27 -377 -29 -373 -24 45 2 228 6 478
8 555 3 77 2 128 0 113 -3 -16 -12 -28 -19 -28 -8 0 -70 26 -137 59 -68 32
-150 64 -182 70 -32 6 -66 16 -74 23 -13 11 -11 13 9 19 43 10 -302 39 -473
39 l-118 0 0 30 c0 31 6 35 75 43 68 9 491 6 616 -3z m6817 -14 c35 -9 77 -23
94 -32 49 -25 118 -95 143 -144 30 -60 72 -232 84 -350 22 -204 43 -606 43
-840 0 -255 -18 -568 -33 -584 -5 -6 -9 0 -9 15 -1 13 -1 179 -1 369 0 190 -4
370 -8 400 -6 41 -9 14 -10 -109 -1 -209 -17 -203 -26 9 -12 281 -49 615 -91
810 -51 241 -70 300 -96 300 -12 0 -7 -163 11 -385 28 -331 41 -616 31 -677
-5 -35 -11 -90 -12 -123 l-1 -60 -7 75 c-4 41 -8 130 -9 197 0 67 -8 206 -16
310 -31 380 -61 556 -110 639 -27 46 -68 81 -73 64 -8 -22 -142 -3 -168 23
-10 10 -64 9 -64 -1 0 -5 -15 -6 -32 -3 -32 4 -32 5 -8 13 44 14 -430 0 -564
-17 -72 -8 -136 -13 -143 -11 -9 4 -13 -4 -13 -26 0 -39 -9 -31 -31 28 -17 44
-17 45 6 60 32 21 195 53 323 64 178 14 715 5 790 -14z m-2639 -75 c20 -11 43
-27 51 -35 10 -13 -94 35 -109 50 -11 11 24 2 58 -15z m-12 -58 c71 -83 73
-91 12 -46 -78 57 -84 60 -66 32 27 -41 37 -106 20 -126 -9 -11 -12 -12 -8 -3
4 8 -6 0 -23 -17 -26 -29 -36 -33 -83 -33 -36 0 -65 7 -86 20 -31 18 -33 24
-33 72 1 75 27 102 139 143 62 23 75 19 128 -42z m-254 6 c-11 -12 -29 -19
-39 -17 -16 3 -14 7 11 21 41 23 53 21 28 -4z m-1533 -93 c0 -16 -184 -138
-280 -186 -36 -18 -73 -39 -83 -48 -9 -8 -52 -32 -95 -53 l-77 -38 80 0 c44 0
143 6 220 14 77 8 167 14 200 14 l60 -1 -55 -15 c-30 -9 -84 -17 -120 -20 -36
-2 -150 -12 -255 -23 -104 -10 -248 -24 -320 -30 -71 -6 -220 -23 -330 -39
-222 -32 -495 -68 -595 -77 -51 -5 -63 -4 -53 6 14 15 319 67 478 80 66 6 152
17 190 25 71 15 248 38 383 51 48 4 81 13 95 25 16 14 18 18 7 19 -31 0 -269
-31 -414 -55 -81 -14 -169 -25 -195 -25 -25 0 -86 -6 -136 -14 -364 -57 -425
-63 -425 -42 0 18 18 22 210 41 322 33 428 45 495 59 63 13 141 23 435 56 79
9 93 15 200 77 63 36 150 86 192 109 42 24 98 57 125 73 54 35 63 37 63 17z
m-3140 -109 c-49 -357 -51 -382 -57 -750 -3 -202 -7 -366 -8 -365 -2 2 -6 75
-10 162 -3 88 -7 162 -9 165 -12 19 24 489 49 641 7 47 19 126 26 175 7 50 15
82 17 72 2 -10 -1 -55 -8 -100z m6250 90 c0 -8 -9 -22 -20 -32 -19 -17 -22
-17 -37 -3 -9 9 -13 24 -10 32 8 20 67 22 67 3z m1447 -19 c-3 -8 -6 -5 -6 6
-1 11 2 17 5 13 3 -3 4 -12 1 -19z m-5975 -53 c38 -15 365 -57 618 -79 25 -2
-25 -2 -110 0 -162 4 -390 25 -475 44 -58 13 -74 23 -100 65 l-19 30 25 -22
c13 -12 41 -29 61 -38z m1855 -12 c-3 -10 -5 -4 -5 12 0 17 2 24 5 18 2 -7 2
-21 0 -30z m-98 0 c10 -19 9 -22 -4 -17 -8 4 -15 15 -15 27 0 23 2 22 19 -10z
m301 -5 c0 -18 -20 -47 -20 -30 0 7 -5 10 -11 7 -6 -4 -5 2 3 14 14 23 28 28
28 9z m-204 -84 c-23 -16 -40 -19 -31 -4 3 6 13 10 21 10 8 0 14 5 14 12 0 6
3 8 7 4 5 -4 -1 -14 -11 -22z m2152 16 c-45 -13 -259 -30 -370 -29 l-103 2 65
8 c56 8 310 25 405 27 l30 0 -27 -8z m-520 -37 c-21 -2 -55 -2 -75 0 -21 2 -4
4 37 4 41 0 58 -2 38 -4z m-2313 -69 c-55 -7 -120 -13 -145 -13 l-45 1 30 13
c20 10 67 14 145 13 l115 0 -100 -14z m-1541 -313 c-4 -166 -10 -301 -14 -301
-14 0 -21 338 -10 452 12 126 18 163 26 155 3 -3 2 -141 -2 -306z m3186 170
c0 -28 -4 -53 -10 -56 -6 -4 -10 15 -10 49 0 31 5 56 10 56 6 0 10 -22 10 -49z
m1762 -438 c3 -205 3 -371 1 -370 -5 5 -25 458 -29 662 -3 176 -3 186 10 135
10 -40 15 -159 18 -427z m-960 374 c41 -25 107 -61 148 -82 41 -21 143 -77
225 -125 83 -48 183 -106 222 -129 63 -36 93 -64 93 -86 0 -8 -85 37 -285 150
-99 56 -207 116 -241 133 -71 36 -224 137 -274 182 l-35 30 37 -14 c20 -8 70
-35 110 -59z m-2946 34 c-10 -11 -50 -36 -89 -57 -40 -20 -88 -47 -107 -59
-19 -12 -82 -47 -140 -77 -58 -30 -123 -66 -145 -79 -84 -52 -231 -127 -265
-134 -19 -4 -33 -5 -30 -2 3 2 59 33 125 67 144 75 244 133 385 226 126 82
226 134 259 134 23 0 23 -1 7 -19z m1943 -105 c1 -93 -5 -81 -12 24 -4 54 -3
78 3 65 5 -11 9 -51 9 -89z m-2291 39 c-7 -7 -164 -25 -203 -24 -16 1 15 7 70
15 55 7 107 15 115 17 17 4 26 0 18 -8z m3717 -15 c88 -6 185 -17 215 -24 73
-18 57 -18 -153 -1 -221 18 -277 25 -277 36 0 5 12 6 28 4 15 -3 99 -9 187
-15z m-4274 -93 c49 -33 79 -91 78 -152 l0 -50 -15 39 c-7 21 -23 53 -34 71
-23 37 -103 95 -132 95 -10 0 -18 5 -18 10 0 20 86 11 121 -13z m4737 0 c8
-42 -10 -87 -55 -137 -41 -46 -46 -57 -56 -125 -8 -52 -8 -97 0 -157 6 -46 10
-85 8 -86 -12 -12 -25 90 -25 188 0 103 3 121 26 170 14 30 32 73 40 95 l14
40 -51 -55 c-28 -30 -58 -68 -66 -85 -14 -30 -14 -30 -9 18 6 53 40 110 83
139 35 23 86 20 91 -5z m-1743 3 c4 -6 -5 -10 -20 -10 -15 0 -24 4 -20 10 3 6
12 10 20 10 8 0 17 -4 20 -10z m-1389 -15 c25 -19 34 -19 34 0 0 8 9 15 19 15
25 0 36 -16 16 -24 -10 -4 -15 -20 -15 -52 0 -43 -2 -46 -22 -40 -13 3 -51 6
-85 6 -35 0 -63 4 -63 10 0 6 9 10 19 10 42 0 31 20 -11 21 l-43 1 45 9 c25 5
51 7 58 4 7 -3 10 0 7 5 -4 6 -83 10 -201 10 -155 0 -194 3 -194 13 0 8 3 17
7 20 3 4 97 7 208 7 161 0 205 -3 221 -15z m1864 -1 c16 -18 30 -103 20 -109
-13 -8 -453 14 -462 23 -5 5 -6 21 -2 36 l6 26 222 2 221 2 -220 6 c-121 3
-221 7 -222 8 -2 1 -3 7 -3 12 0 6 78 10 214 10 181 0 216 -2 226 -16z m-3515
-37 c59 -58 79 -129 78 -262 -1 -69 -8 -122 -22 -170 -19 -63 -20 -65 -17 -25
3 25 10 74 16 110 12 68 6 145 -15 195 -6 17 -35 61 -63 98 -29 37 -52 75 -52
83 0 26 32 14 75 -29z m3057 -9 c-10 -22 -11 -21 -11 12 -1 26 2 31 11 22 8
-8 8 -17 0 -34z m-137 -84 c-18 -53 -25 -51 -25 8 0 62 9 78 25 47 9 -16 9
-30 0 -55z m-1407 39 c-10 -2 -28 -2 -40 0 -13 2 -5 4 17 4 22 1 32 -1 23 -4z
m790 -32 c-3 -12 -18 -17 -70 -19 -70 -3 -131 15 -95 27 9 3 51 7 92 7 65 1
76 -1 73 -15z m3872 -133 l0 -88 -32 0 c-20 0 -28 3 -21 8 17 11 5 52 -16 54
-9 0 -21 2 -28 2 -25 3 -53 40 -53 72 0 37 6 39 98 40 l52 0 0 -88z m-3857 65
c-7 -2 -19 -2 -25 0 -7 3 -2 5 12 5 14 0 19 -2 13 -5z m1457 -39 c150 -19 424
-68 496 -89 28 -8 71 -24 95 -35 l44 -21 -45 6 c-25 4 -92 17 -150 30 -58 13
-177 35 -265 49 -157 26 -375 74 -375 82 0 2 17 2 38 -1 20 -2 93 -12 162 -21z
m1590 19 c-51 -7 -57 -15 -54 -85 l3 -63 -9 50 c-4 28 -9 62 -9 78 -1 26 0 27
52 25 40 -1 44 -2 17 -5z m-5905 -131 c-4 -30 -9 -51 -12 -49 -8 9 -9 116 0
110 4 -2 8 13 9 34 l1 38 4 -40 c3 -22 2 -64 -2 -93z m3452 61 c-3 -10 -5 -2
-5 17 0 19 2 27 5 18 2 -10 2 -26 0 -35z m578 7 c94 -10 276 -35 405 -55 129
-19 312 -47 405 -61 238 -35 319 -55 323 -78 2 -10 0 -16 -5 -13 -13 8 -227
44 -433 72 -102 14 -192 27 -200 30 -59 17 -728 105 -810 106 -30 1 -66 5 -80
9 -51 16 228 9 395 -10z m1761 -85 c5 -63 3 -87 -4 -80 -6 6 -14 51 -18 100
-5 65 -3 87 5 80 6 -6 13 -51 17 -100z m-3866 70 c-96 -13 -247 -33 -335 -45
-88 -11 -241 -34 -340 -50 -469 -76 -615 -95 -615 -80 0 5 10 12 23 14 26 6
222 38 397 67 69 11 190 31 270 45 80 13 195 29 255 35 61 5 169 16 240 23 72
8 164 14 205 14 64 0 50 -3 -100 -23z m-1866 -89 c-4 -42 -9 -74 -12 -72 -2 3
-1 39 3 81 4 42 9 74 11 72 3 -3 2 -39 -2 -81z m1114 79 c-7 -7 -219 -55 -238
-54 -21 1 105 38 165 48 64 11 80 12 73 6z m4479 -37 c-3 -8 -6 -5 -6 6 -1 11
2 17 5 13 3 -3 4 -12 1 -19z m-1700 -13 c76 -9 230 -31 343 -50 113 -18 273
-43 355 -55 83 -11 202 -29 265 -40 63 -10 144 -22 180 -25 36 -4 72 -12 80
-17 21 -13 -103 -3 -265 22 -71 11 -229 33 -350 50 -121 17 -283 41 -360 55
-77 14 -205 36 -285 49 -171 28 -157 32 37 11z m-1379 -52 c-10 -2 -26 -2 -35
0 -10 3 -2 5 17 5 19 0 27 -2 18 -5z m1237 -81 c-3 -3 -11 0 -18 7 -9 10 -8
11 6 5 10 -3 15 -9 12 -12z m105 -12 c24 -8 24 -8 -5 -8 -16 0 -41 4 -55 8
-24 8 -24 8 5 8 17 0 41 -4 55 -8z m65 -40 c9 -15 -33 -21 -125 -16 -118 6
-118 6 -95 16 28 12 212 12 220 0z m55 0 c0 -13 -40 -53 -47 -47 -6 7 27 57
38 57 5 0 9 -4 9 -10z m-1402 -15 c-11 -9 -138 -15 -138 -6 0 11 58 18 108 12
18 -2 32 -4 30 -6z m202 5 c0 -5 -21 -10 -47 -9 -36 0 -43 3 -28 9 28 12 75
12 75 0z m200 0 c0 -23 -90 -26 -98 -2 -2 8 11 12 47 12 28 0 51 -4 51 -10z
m185 -5 l50 -13 -67 -1 c-54 -1 -68 2 -68 14 0 18 17 18 85 0z m715 -55 c0
-12 -65 -30 -110 -30 -20 0 -60 -6 -90 -14 -71 -19 -76 -13 -8 10 105 35 208
52 208 34z m1469 -260 c0 -50 -1 -53 -14 -36 -16 21 -20 92 -8 147 l7 34 7
-45 c4 -25 8 -70 8 -100z m-2819 100 c0 -14 -48 -32 -74 -28 -26 4 -32 25 -9
31 34 9 83 7 83 -3z m-2153 -97 c-2 -16 -4 -5 -4 22 0 28 2 40 4 28 2 -13 2
-35 0 -50z m2704 36 c27 -42 -17 -84 -106 -100 -33 -6 -72 -14 -87 -19 -16 -5
-30 -4 -34 1 -3 5 -29 9 -57 9 -29 1 -74 9 -102 18 -49 17 -50 18 -50 57 0 38
2 40 35 47 19 4 115 5 213 4 141 -2 181 -6 188 -17z m-2502 -24 c9 -9 -7 -15
-47 -19 -36 -3 -42 -1 -42 17 0 17 4 19 42 13 23 -4 44 -9 47 -11z m4141 -29
c107 -14 254 -30 325 -36 72 -6 168 -17 215 -25 174 -29 512 -66 820 -90 107
-9 265 -26 350 -40 85 -13 216 -31 290 -40 170 -20 224 -32 245 -55 15 -17 10
-18 -117 -30 -135 -13 -258 -12 -933 10 -323 11 -572 24 -775 40 -240 20 -563
51 -625 60 -80 12 -244 16 -274 6 l-25 -9 25 29 c14 16 36 42 49 58 77 92 155
146 210 146 14 0 113 -11 220 -24z m-3395 -26 c63 -38 247 -215 272 -263 17
-33 11 -31 -47 13 -53 41 -96 61 -153 70 -61 10 -232 -2 -437 -30 -80 -11
-233 -25 -340 -30 -107 -6 -285 -15 -395 -20 -475 -25 -572 -28 -615 -20 -37
6 -28 8 55 9 55 1 152 5 215 11 63 5 259 18 435 30 301 19 602 42 795 61 47 4
129 8 183 8 l97 1 -41 53 c-22 28 -55 60 -72 70 -43 23 -157 22 -367 -3 -91
-11 -322 -34 -515 -50 -192 -17 -397 -37 -455 -45 -90 -12 -373 -32 -715 -50
-191 -10 108 33 415 60 96 9 301 31 455 50 154 19 348 42 430 50 83 9 238 26
345 40 108 13 240 23 295 22 96 -2 104 -4 160 -37z m-2855 -38 c0 -15 -11 -43
-25 -62 -17 -23 -25 -28 -25 -17 0 16 -9 21 -27 15 -5 -2 -7 -6 -5 -10 1 -5
-2 -8 -8 -8 -20 0 -9 40 21 75 39 44 69 47 69 7z m8810 11 c14 -9 40 -30 58
-46 l32 -31 0 -340 c0 -326 1 -342 21 -375 23 -37 20 -48 -9 -32 -40 21 -44
56 -46 381 0 170 -4 310 -7 310 -6 0 -89 135 -89 145 0 9 15 5 40 -12z m-8872
-330 l-2 -198 -5 180 c-6 168 -4 215 5 215 2 0 3 -89 2 -197z m153 38 c6 -81
6 -127 0 -139 -8 -13 -10 -5 -11 34 0 28 -3 93 -6 145 -4 52 -4 91 0 88 4 -4
11 -61 17 -128z m5914 34 c537 -67 608 -73 1015 -85 293 -9 375 -18 391 -42 3
-5 70 -13 150 -18 79 -6 164 -12 189 -15 167 -19 279 -25 535 -27 160 -1 295
0 300 3 6 2 11 0 13 -6 4 -16 -121 -23 -608 -34 -250 -6 -507 -16 -570 -21
-327 -30 -521 -37 -760 -29 -325 10 -584 26 -753 45 -77 9 -164 14 -194 11
-64 -7 -62 3 5 19 35 9 40 12 20 13 -26 1 -27 2 -13 29 7 15 21 47 29 72 9 25
25 60 37 79 19 31 23 33 57 27 20 -3 91 -13 157 -21z m-2886 -36 c42 -28 116
-117 105 -128 -2 -2 -27 17 -56 43 -29 25 -73 61 -97 79 -89 65 -50 70 48 6z
m2425 -6 c-71 -162 -69 -154 -69 -258 -1 -55 -6 -122 -12 -150 -7 -27 -14 -66
-18 -87 -3 -21 -13 -39 -23 -43 -9 -4 -110 -9 -223 -12 l-207 -6 -7 158 c-8
175 -2 282 17 301 7 7 108 33 223 58 116 25 235 52 265 60 30 8 58 15 63 15 4
1 0 -16 -9 -36z m2986 7 c0 -5 -21 -10 -47 -10 -27 0 -86 -2 -133 -4 l-85 -5
100 13 c129 17 165 18 165 6z m-5071 -29 c120 -24 274 -51 294 -51 20 0 31
-87 35 -279 l4 -214 -221 7 c-121 3 -227 9 -236 12 -9 4 -15 19 -15 42 0 19
-8 59 -17 88 -14 45 -15 63 -5 116 14 79 3 139 -43 236 l-34 72 46 0 c26 0
112 -13 192 -29z m4768 2 c-20 -2 -52 -2 -70 0 -17 2 0 4 38 4 39 0 53 -2 32
-4z m-5095 -95 c52 -51 106 -113 118 -136 24 -50 21 -68 -6 -27 -23 35 -123
111 -178 135 -36 17 -45 26 -48 52 -5 34 0 68 11 68 4 0 50 -42 103 -92z m-55
-43 c46 -20 39 -27 -13 -13 -32 9 -73 7 -200 -11 -292 -39 -336 -42 -799 -48
-382 -4 -487 -3 -621 11 -89 9 -195 16 -235 16 -82 0 -585 26 -749 39 l-105 9
135 -4 c315 -9 735 -25 1015 -39 213 -11 406 -14 665 -10 406 6 576 17 695 45
100 23 165 24 212 5z m5521 -50 c-9 -9 -294 -51 -503 -75 -104 -11 -248 -28
-320 -36 -71 -8 -211 -24 -310 -34 -99 -11 -265 -31 -370 -45 -152 -20 -257
-27 -525 -34 -326 -9 -467 -5 -753 20 -71 6 -149 9 -173 6 -47 -5 -49 5 -4 28
23 12 48 13 141 5 63 -5 332 -11 599 -12 267 -2 448 0 402 3 -141 11 -103 19
86 19 139 0 222 6 354 25 95 13 243 29 328 34 85 6 180 15 210 21 30 6 129 15
220 21 91 5 251 20 355 33 195 24 272 30 263 21z m-8661 -47 c-3 -8 -6 -5 -6
6 -1 11 2 17 5 13 3 -3 4 -12 1 -19z m1178 -53 c143 -14 330 -33 415 -44 177
-23 390 -37 735 -50 289 -12 507 -7 713 16 167 18 225 12 268 -28 18 -17 49
-89 38 -89 -3 0 -18 15 -34 34 -47 53 -125 70 -253 57 -56 -6 -255 -16 -441
-21 -277 -8 -380 -7 -560 5 -278 19 -420 32 -482 45 -65 14 -217 34 -454 61
-107 12 -213 28 -235 35 -40 14 -40 14 -5 9 19 -3 152 -17 295 -30z m4948 0
c133 -9 267 -21 297 -27 30 -6 98 -14 150 -17 71 -5 14 -8 -225 -14 -211 -6
-358 -5 -431 2 -60 6 -142 11 -182 12 l-72 1 43 29 c51 35 74 36 420 14z
m-2844 -31 c17 -14 31 -29 31 -33 0 -5 -27 1 -60 13 -64 22 -80 46 -31 46 17
0 42 -11 60 -26z m-2786 6 c92 -6 245 -21 340 -35 95 -13 228 -29 297 -34 170
-15 241 -23 237 -27 -12 -12 -487 32 -662 61 -49 8 -191 18 -315 22 -204 7
-218 11 -85 21 11 1 96 -3 188 -8z m8190 5 c9 -4 17 -10 17 -14 0 -7 -303 -23
-470 -25 -77 -1 -163 -15 -285 -46 -70 -18 -402 -56 -412 -47 -2 3 20 8 49 12
72 10 110 27 43 20 -96 -11 -159 -26 -144 -36 9 -6 -5 -9 -41 -9 -30 0 -111
-9 -180 -20 -69 -11 -213 -31 -320 -44 -175 -22 -260 -39 -249 -51 7 -7 232
16 349 35 63 11 140 23 170 26 30 3 76 12 103 21 51 16 123 25 110 13 -16 -14
-120 -39 -187 -45 -64 -6 -143 -20 -321 -60 -82 -18 -275 -29 -275 -14 0 5 6
9 14 9 8 0 18 5 22 11 4 7 0 9 -12 6 -31 -9 -83 -15 -199 -22 -60 -4 -189 -16
-285 -26 -360 -40 -618 -57 -975 -64 -148 -4 -382 -13 -520 -21 -245 -14 -319
-12 -505 14 l-45 6 35 7 c35 6 35 6 -9 8 -76 2 -41 10 99 21 74 6 214 20 310
31 100 11 314 24 500 29 327 10 604 23 890 41 85 5 244 14 352 19 109 5 273
17 365 25 92 8 222 20 288 26 121 11 192 20 431 58 72 11 223 30 335 41 221
21 322 33 469 53 103 14 454 23 483 12z m-3773 -64 c0 -26 -3 -76 -6 -110 l-7
-61 -118 0 c-105 0 -119 2 -119 17 0 15 -2 14 -15 -3 -13 -17 -14 -11 -15 68
l0 87 38 6 c20 3 80 16 132 29 52 13 98 21 103 19 4 -2 7 -26 7 -52z m-775 11
l80 -17 3 -88 3 -87 -116 0 -115 0 0 110 0 111 33 -6 c17 -4 68 -14 112 -23z
m-3547 1 c-26 -2 -71 -2 -100 0 -29 2 -8 3 47 3 55 0 79 -1 53 -3z m135 -20
c-7 -2 -21 -2 -30 0 -10 3 -4 5 12 5 17 0 24 -2 18 -5z m7977 -3 c-8 -5 -78
-10 -155 -10 -87 0 -190 -8 -273 -20 -146 -22 -237 -26 -247 -10 -4 6 1 7 11
3 12 -4 15 -3 10 5 -5 9 7 12 41 13 78 2 192 9 283 18 125 12 348 13 330 1z
m-7923 -6 c-3 -3 -12 -4 -19 -1 -8 3 -5 6 6 6 11 1 17 -2 13 -5z m76 -11 c-7
-2 -21 -2 -30 0 -10 3 -4 5 12 5 17 0 24 -2 18 -5z m287 -22 c74 -6 209 -16
300 -20 163 -9 629 -52 765 -70 39 -6 169 -15 290 -22 299 -16 352 -26 145
-28 -188 -1 -402 14 -475 34 -27 7 -95 16 -150 20 -55 3 -179 15 -275 25 -96
11 -240 22 -320 24 -150 5 -272 16 -445 41 -116 16 -64 15 165 -4z m403 -63
c32 -6 56 -12 54 -14 -4 -4 -248 25 -262 31 -17 8 146 -5 208 -17z m6167 7
c-52 -14 -305 -56 -335 -55 -11 1 9 13 45 27 51 21 86 27 164 30 55 2 102 5
104 8 3 3 19 5 36 4 28 -1 27 -2 -14 -14z m-7240 -38 c86 -15 109 -23 90 -28
-50 -14 -318 -4 -335 12 -9 10 6 38 23 42 25 6 93 -2 222 -26z m8631 17 c27
-13 67 -79 56 -90 -2 -2 -21 3 -42 11 -20 9 -59 16 -86 17 -42 0 -48 2 -38 14
6 8 24 14 40 14 29 0 38 13 19 25 -15 9 -12 25 5 25 9 0 30 -7 46 -16z m-441
-14 c10 -20 8 -20 -120 -20 -71 0 -130 4 -130 8 0 5 39 13 88 19 140 16 150
15 162 -7z m-6841 -6 c7 -7 -91 -2 -149 6 -40 6 -27 7 45 3 55 -3 102 -7 104
-9z m5799 -1 c-10 -2 -26 -2 -35 0 -10 3 -2 5 17 5 19 0 27 -2 18 -5z m-5695
-10 c-18 -2 -48 -2 -65 0 -18 2 -4 4 32 4 36 0 50 -2 33 -4z m5620 0 c-7 -2
-21 -2 -30 0 -10 3 -4 5 12 5 17 0 24 -2 18 -5z m-5188 -53 c39 -6 2 -7 -105
-3 -91 3 -194 9 -230 14 -41 5 -3 6 105 2 94 -3 197 -9 230 -13z m602 14 c-3
-3 -12 -4 -19 -1 -8 3 -5 6 6 6 11 1 17 -2 13 -5z m4136 -21 c-13 -2 -33 -2
-45 0 -13 2 -3 4 22 4 25 0 35 -2 23 -4z m-80 -10 c-7 -2 -21 -2 -30 0 -10 3
-4 5 12 5 17 0 24 -2 18 -5z m-655 -40 c-10 -2 -28 -2 -40 0 -13 2 -5 4 17 4
22 1 32 -1 23 -4z m-95 -13 c-45 -10 -386 -34 -404 -28 -8 3 27 8 76 12 50 4
128 11 175 15 47 5 108 8 135 9 45 0 46 -1 18 -8z m162 -20 c-114 -33 -699
-60 -1165 -55 -151 2 -365 -1 -475 -7 -123 -6 -275 -7 -395 -2 l-195 9 345 6
c1004 17 1590 32 1715 43 77 7 154 13 170 14 l30 0 -30 -8z m-1221 -69 c6 -9
-382 -27 -390 -18 -3 3 48 8 113 11 65 4 129 8 143 10 57 7 129 5 134 -3z
m174 2 c-15 -2 -42 -2 -60 0 -18 2 -6 4 27 4 33 0 48 -2 33 -4z m-613 -23
c-28 -12 -37 -12 -30 0 3 6 16 10 28 9 21 0 21 -1 2 -9z"/>
<path d="M5401 4225 c0 -33 -4 -91 -8 -129 -6 -62 -8 -67 -20 -50 -13 17 -14
15 -11 -21 l3 -40 49 -3 c73 -5 92 3 127 55 18 25 40 54 50 64 18 18 89 151
89 166 0 5 -16 -19 -36 -52 -74 -125 -83 -134 -141 -151 -30 -9 -56 -14 -58
-12 -4 3 -13 54 -38 208 -2 14 -5 -2 -6 -35z"/>
<path d="M5350 3952 c24 -15 118 -24 125 -12 4 6 -4 10 -18 10 -13 0 -46 3
-73 6 -32 3 -44 2 -34 -4z"/>
<path d="M5277 3462 c-21 -23 -22 -43 -3 -36 20 8 28 -25 25 -99 l-3 -62 38 0
c43 -1 42 -2 50 128 l5 87 -48 0 c-34 0 -53 -5 -64 -18z"/>
<path d="M5034 2420 c-103 -22 -143 -55 -121 -100 20 -39 71 -67 138 -75 76
-9 223 3 269 21 l35 14 -23 -20 c-13 -10 -42 -21 -65 -24 -81 -11 -91 -15 -25
-11 110 7 178 44 178 99 0 41 -7 49 -60 76 -39 20 -62 24 -165 26 -66 2 -138
-1 -161 -6z m283 -56 c52 -6 62 -20 35 -47 -18 -18 -37 -21 -131 -25 -122 -5
-213 4 -190 19 8 5 73 9 144 9 136 0 175 5 175 23 0 7 -50 8 -152 5 -171 -6
-241 2 -148 18 54 9 185 8 267 -2z"/>
<path d="M6629 2513 c-13 -16 -12 -17 4 -4 9 7 17 15 17 17 0 8 -8 3 -21 -13z"/>
<path d="M7718 1923 c7 -3 16 -2 19 1 4 3 -2 6 -13 5 -11 0 -14 -3 -6 -6z"/>
<path d="M3028 1873 c17 -2 47 -2 65 0 17 2 3 4 -33 4 -36 0 -50 -2 -32 -4z"/>
<path d="M6178 1563 c7 -3 16 -2 19 1 4 3 -2 6 -13 5 -11 0 -14 -3 -6 -6z"/>
<path d="M2085 1490 c3 -5 8 -10 11 -10 2 0 4 5 4 10 0 6 -5 10 -11 10 -5 0
-7 -4 -4 -10z"/>
<path d="M2086 1457 c3 -10 9 -15 12 -12 3 3 0 11 -7 18 -10 9 -11 8 -5 -6z"/>
<path d="M7744 545 c-11 -18 -15 -37 -11 -62 8 -46 24 -62 69 -69 48 -8 78 21
78 74 0 58 -22 82 -75 82 -37 0 -48 -5 -61 -25z m100 -27 c14 -23 -4 -72 -27
-76 -37 -7 -58 36 -41 83 8 21 53 16 68 -7z"/>
<path d="M2511 514 c-12 -15 -21 -33 -21 -40 0 -20 41 -54 65 -54 51 0 74 75
33 104 -32 23 -54 20 -77 -10z m59 -74 c-18 -12 -30 -13 -30 -2 0 4 10 9 22 9
18 2 20 0 8 -7z"/>
<path d="M6801 283 c-8 -15 -13 -16 -30 -5 -29 17 -41 15 -41 -8 0 -11 11 -27
25 -36 23 -15 27 -15 50 0 27 18 48 50 38 60 -12 11 -32 6 -42 -11z"/>
</g>
</svg>
